<?xml version="1.0" standalone="no"?>
<!DOCTYPE svg PUBLIC "-//W3C//DTD SVG 20010904//EN"
 "http://www.w3.org/TR/2001/REC-SVG-20010904/DTD/svg10.dtd">
<svg version="1.0" xmlns="http://www.w3.org/2000/svg"
 width="500.000000pt" height="500.000000pt" viewBox="0 0 500.000000 500.000000"
 preserveAspectRatio="xMidYMid meet">

<g transform="translate(0.000000,500.000000) scale(0.100000,-0.100000)"
fill="#000000" stroke="none">
<path d="M2071 3333 c-156 -159 -333 -430 -520 -800 -40 -79 -77 -143 -83
-143 -8 0 -9 48 -5 163 10 242 46 476 88 573 27 60 22 96 -14 108 -71 25 -114
-66 -152 -321 -22 -145 -37 -423 -26 -472 15 -68 74 -111 151 -111 30 0 66 50
135 190 172 345 391 676 530 798 l48 42 -36 15 c-20 8 -41 15 -47 15 -7 0 -37
-26 -69 -57z m-614 -345 c-3 -8 -6 -5 -6 6 -1 11 2 17 5 13 3 -3 4 -12 1 -19z
m-16 -89 c-5 -26 -9 -34 -10 -19 -1 27 9 73 15 67 2 -2 0 -23 -5 -48z m-14
-86 c-3 -10 -5 -4 -5 12 0 17 2 24 5 18 2 -7 2 -21 0 -30z m-10 -120 c-2 -16
-4 -5 -4 22 0 28 2 40 4 28 2 -13 2 -35 0 -50z m-10 -55 c-3 -8 -6 -5 -6 6 -1
11 2 17 5 13 3 -3 4 -12 1 -19z m0 -140 c-2 -24 -4 -5 -4 42 0 47 2 66 4 43 2
-24 2 -62 0 -85z"/>
<path d="M2050 3139 c-51 -80 -57 -99 -34 -116 33 -24 54 -16 74 33 11 25 23
57 26 70 7 29 -3 74 -16 74 -6 0 -28 -27 -50 -61z"/>
<path d="M2886 3124 c-19 -18 -21 -55 -4 -72 29 -29 98 -1 98 41 0 19 -37 47
-62 47 -9 0 -24 -7 -32 -16z"/>
<path d="M3038 3129 c-22 -12 -24 -62 -4 -78 25 -21 69 -9 86 22 14 27 14 29
-9 48 -26 21 -47 24 -73 8z"/>
<path d="M3465 3025 c-5 -2 -23 -6 -38 -9 -70 -16 -216 -206 -249 -326 -23
-84 -23 -164 1 -217 24 -52 54 -72 119 -80 41 -5 57 -2 86 16 43 27 122 113
183 200 26 36 61 84 79 106 53 68 50 72 -11 13 -55 -54 -85 -71 -54 -31 19 25
14 21 -110 -98 -112 -108 -164 -143 -204 -137 -31 4 -33 54 -5 153 22 76 25
80 51 77 15 -1 52 9 82 24 43 20 67 41 105 91 62 82 78 133 56 180 -9 18 -21
33 -28 33 -7 0 -22 2 -33 5 -11 2 -24 2 -30 0z m39 -117 c-31 -62 -89 -130
-132 -155 -24 -14 -45 -23 -48 -21 -8 8 25 77 63 129 19 28 56 66 82 85 42 33
46 34 49 16 2 -12 -4 -36 -14 -54z m87 -245 c-70 -86 -90 -107 -91 -94 0 10
-8 7 -27 -10 l-28 -24 25 30 c50 61 93 104 100 100 4 -3 15 4 25 15 31 34 28
22 -4 -17z"/>
<path d="M3544 2628 l-19 -23 23 19 c12 11 22 21 22 23 0 8 -8 2 -26 -19z"/>
<path d="M3082 2942 c-24 -37 -34 -57 -23 -44 10 12 22 22 26 22 19 0 -31 -87
-158 -275 -42 -63 -77 -102 -77 -87 0 5 3 12 7 16 4 3 8 14 9 23 3 19 -3 13
-46 -47 -18 -25 -30 -36 -27 -25 3 11 15 56 28 100 12 44 39 121 60 170 21 50
39 98 39 108 0 23 -66 53 -84 38 -7 -6 -28 -44 -47 -86 -26 -56 -39 -74 -54
-75 -11 0 -38 -9 -59 -21 l-39 -21 7 110 c7 106 6 111 -15 131 -31 29 -52 26
-72 -9 -23 -38 -262 -357 -295 -392 -14 -16 -29 -28 -33 -28 -9 0 53 175 78
220 43 75 94 150 103 150 6 0 18 -13 28 -28 9 -16 23 -27 30 -25 22 8 13 49
-18 78 -26 25 -34 27 -77 22 -61 -8 -85 -34 -177 -195 -91 -160 -220 -321
-241 -301 -11 12 21 188 50 275 19 57 35 110 35 118 0 20 -36 39 -59 31 -52
-16 -131 -316 -107 -408 9 -39 53 -85 87 -92 45 -10 71 8 125 87 27 39 50 64
53 56 6 -19 37 -47 64 -57 33 -13 78 16 120 75 40 58 216 295 228 309 11 11 6
-21 -24 -160 -17 -82 -27 -106 -54 -136 -18 -20 -33 -43 -33 -50 1 -8 12 -1
26 16 17 20 22 24 17 10 -7 -20 -111 -155 -119 -155 -7 0 15 38 26 45 6 3 17
19 25 35 14 26 14 29 0 24 -8 -4 -15 -12 -15 -20 0 -8 -4 -14 -9 -14 -15 0
-118 -162 -141 -220 -11 -29 -18 -60 -15 -70 24 -75 31 -156 15 -175 -11 -13
-8 -15 16 -15 19 0 25 3 16 9 -9 5 -12 24 -10 56 l3 49 38 -57 c20 -31 42 -57
47 -57 6 0 10 27 10 59 0 46 4 63 18 73 25 19 76 87 99 133 23 45 81 223 108
330 20 76 38 102 102 146 l42 30 7 -26 c3 -14 -4 -68 -17 -122 -13 -54 -25
-90 -27 -81 -2 10 6 56 18 104 12 47 20 88 17 90 -5 5 -47 -164 -47 -190 0
-22 31 -76 44 -76 5 0 14 -6 20 -14 6 -8 21 -17 33 -20 29 -9 53 18 154 179
45 72 85 134 89 138 4 5 1 -16 -6 -45 -8 -29 -22 -106 -31 -171 -16 -112 -16
-120 0 -151 18 -32 68 -62 86 -51 6 3 8 19 5 34 -10 50 42 329 111 592 5 21 1
31 -21 48 -15 11 -32 21 -38 21 -6 0 -30 -31 -54 -68z m-583 -124 c-58 -77
-95 -118 -107 -118 -2 0 0 6 5 13 6 6 34 44 63 82 84 110 95 122 98 113 2 -4
-25 -45 -59 -90z m622 25 c-12 -20 -14 -14 -5 12 4 9 9 14 11 11 3 -2 0 -13
-6 -23z m-87 -80 c-36 -50 -52 -65 -31 -30 38 61 50 77 54 73 3 -3 -8 -22 -23
-43z m-360 -28 c-8 -19 -44 -40 -44 -26 0 8 38 41 47 41 1 0 0 -7 -3 -15z
m435 -22 c-5 -21 -16 -72 -25 -113 -18 -84 -30 -108 -20 -40 11 74 39 190 47
190 4 0 3 -17 -2 -37z m-139 -50 c-12 -21 -33 -51 -47 -68 l-26 -30 18 30 c34
55 68 105 72 105 2 0 -5 -17 -17 -37z m87 -175 c-3 -8 -6 -5 -6 6 -1 11 2 17
5 13 3 -3 4 -12 1 -19z m-618 -94 c-34 -114 -112 -244 -146 -244 -22 0 -15 35
22 105 33 64 137 217 143 211 1 -2 -7 -34 -19 -72z m-79 -18 c0 -2 -8 -10 -17
-17 -16 -13 -17 -12 -4 4 13 16 21 21 21 13z m-10 -323 c-1 -36 -1 -37 -16
-18 -35 45 -36 55 -9 55 22 0 25 -4 25 -37z"/>
<path d="M3012 2843 c-32 -48 -34 -53 -17 -47 9 4 14 9 11 12 -3 2 4 18 15 33
11 16 18 29 15 29 -2 0 -13 -12 -24 -27z"/>
<path d="M3635 2770 c-16 -16 -26 -32 -23 -35 3 -3 17 10 32 30 33 43 29 45
-9 5z"/>
<path d="M2925 2711 c-6 -11 9 -23 19 -14 9 9 7 23 -3 23 -6 0 -12 -4 -16 -9z"/>
<path d="M2904 2678 c-33 -56 -36 -63 -22 -46 8 10 19 14 23 10 5 -4 5 -1 1 6
-4 6 -3 12 2 12 5 0 9 7 9 15 0 18 -4 19 -13 3z"/>
<path d="M3227 2318 c-4 -15 -22 -36 -42 -48 -38 -24 -43 -44 -19 -78 9 -13
26 -50 39 -82 13 -33 33 -73 45 -90 12 -16 17 -30 13 -30 -21 0 -94 64 -122
107 -34 51 -37 64 -20 95 17 32 1 34 -32 2 -43 -41 -110 -185 -108 -233 0 -9
8 10 18 41 32 100 30 98 58 44 13 -27 70 -95 126 -152 81 -83 108 -104 130
-104 51 0 23 31 -138 153 -52 40 -76 66 -97 107 -35 70 -35 82 2 122 l30 33
-6 -27 c-11 -49 70 -158 142 -190 36 -17 40 -3 11 39 -14 21 -33 58 -41 81 -9
24 -26 62 -38 83 l-22 40 43 40 c41 37 45 38 62 23 10 -9 42 -19 71 -23 50 -6
54 -8 76 -51 22 -42 23 -53 18 -152 -6 -114 -2 -138 20 -138 14 0 34 30 34 52
0 7 -6 2 -13 -11 -23 -46 -32 -18 -28 90 3 92 0 112 -19 157 -23 54 -25 55
-104 66 -27 4 -47 14 -61 32 l-22 28 -6 -26z m17 -440 c72 -55 90 -78 61 -78
-10 0 -52 34 -94 76 -83 83 -73 84 33 2z"/>
<path d="M3427 2254 c4 -11 8 -12 13 -4 5 9 10 9 14 1 4 -6 27 -19 51 -30 36
-16 45 -26 54 -58 14 -49 14 -92 0 -132 -9 -25 -9 -42 1 -72 12 -34 11 -45 -4
-77 -13 -29 -13 -33 -1 -18 8 11 16 25 16 30 1 6 5 -7 10 -29 6 -31 7 -23 5
35 -2 41 -8 76 -14 78 -6 2 -5 17 3 40 13 39 5 135 -15 173 -9 16 -113 79
-131 79 -5 0 -6 -7 -2 -16z"/>
<path d="M3266 2205 c24 -39 24 -40 24 -28 0 6 -9 21 -21 34 l-20 24 17 -30z"/>
<path d="M3441 2214 c0 -11 3 -14 6 -6 3 7 2 16 -1 19 -3 4 -6 -2 -5 -13z"/>
<path d="M3583 2180 c4 -14 7 -43 8 -65 2 -40 2 -40 8 8 l6 49 65 -49 65 -48
6 -75 5 -75 2 73 c2 80 -3 88 -75 136 -21 14 -51 35 -67 48 l-29 22 6 -24z"/>
<path d="M3450 2187 c0 -5 5 -17 10 -27 6 -11 15 -52 20 -92 l9 -73 -4 72 c-2
39 -11 84 -19 100 -8 15 -15 24 -16 20z"/>
<path d="M3292 2148 c3 -7 13 -37 23 -66 9 -29 19 -52 21 -49 5 5 -36 127 -43
127 -3 0 -3 -6 -1 -12z"/>
<path d="M3527 2100 c5 -55 -1 -88 -33 -204 l-38 -139 -17 49 c-20 57 -98 224
-99 210 0 -6 20 -53 44 -105 70 -153 70 -152 -30 -74 -49 37 -122 102 -163
143 l-74 75 54 -64 c30 -36 81 -84 114 -109 71 -52 118 -95 163 -145 32 -38
40 -41 23 -9 -7 12 3 60 30 156 38 136 47 217 30 261 -5 12 -6 -8 -4 -45z"/>
<path d="M703 2122 c-19 -3 -22 -10 -25 -73 l-3 -69 40 0 c58 0 85 22 85 69 0
53 -38 82 -97 73z m71 -34 c9 -12 16 -30 16 -40 0 -26 -36 -58 -65 -58 -24 0
-25 3 -25 60 0 60 0 60 29 60 20 0 35 -8 45 -22z"/>
<path d="M872 2113 c5 -7 8 -39 6 -73 l-3 -60 41 0 c30 0 44 5 48 16 5 14 4
15 -8 5 -26 -21 -61 -9 -64 22 -3 23 0 27 22 27 14 0 26 4 26 9 0 4 -12 6 -26
3 -22 -4 -25 -2 -22 19 2 20 9 24 36 24 17 0 32 4 32 10 0 5 -22 10 -49 10
-38 0 -47 -3 -39 -12z"/>
<path d="M1063 2120 c-44 -18 -57 -86 -23 -120 20 -20 84 -28 94 -12 2 4 -10
6 -28 4 -45 -5 -68 19 -64 67 4 42 36 65 75 50 12 -4 23 -5 23 0 0 5 -10 11
-22 15 -28 7 -27 7 -55 -4z"/>
<path d="M1226 2109 c-52 -41 -25 -129 40 -129 71 0 103 86 48 129 -15 12 -34
21 -44 21 -10 0 -29 -9 -44 -21z m82 -11 c29 -29 4 -108 -34 -108 -35 0 -54
20 -54 58 0 45 14 62 50 62 14 0 31 -5 38 -12z"/>
<path d="M1410 2111 c14 -27 13 -104 -2 -119 -9 -9 -5 -12 18 -11 16 0 23 3
17 6 -15 6 -18 53 -3 53 5 0 19 -13 32 -30 12 -16 30 -30 40 -30 15 0 12 6
-14 30 -30 27 -31 31 -15 41 9 5 17 21 17 35 0 26 -30 44 -76 44 -21 0 -23 -3
-14 -19z m73 -13 c7 -23 -4 -38 -29 -38 -19 0 -24 5 -24 25 0 20 5 25 24 25
13 0 26 -6 29 -12z"/>
<path d="M1621 2109 c-34 -88 -46 -115 -55 -121 -6 -4 -1 -8 12 -8 13 0 20 4
17 10 -11 18 15 50 40 50 24 0 29 -9 28 -47 -1 -7 11 -13 26 -13 15 0 21 3 14
8 -6 4 -21 34 -33 67 -28 75 -37 85 -49 54z m25 -56 c-2 -3 -11 -3 -19 -1 -11
2 -12 9 -5 28 l10 25 9 -24 c5 -13 7 -26 5 -28z"/>
<path d="M1797 2123 c-24 -6 -50 -59 -41 -86 12 -39 35 -57 75 -57 21 0 40 4
44 9 3 6 -9 8 -29 4 -26 -4 -39 0 -55 16 -24 24 -26 38 -11 76 9 24 15 27 50
23 25 -2 39 0 37 7 -4 11 -42 16 -70 8z"/>
<path d="M1938 2118 c16 -16 16 -125 0 -131 -7 -3 -2 -6 12 -6 25 -1 25 0 25
74 0 73 -1 75 -24 75 -20 0 -22 -3 -13 -12z"/>
<path d="M2065 2105 c-50 -49 -20 -125 48 -125 43 0 67 26 67 71 0 40 -7 52
-37 68 -33 17 -51 14 -78 -14z m85 -11 c46 -54 -25 -138 -74 -88 -19 18 -21
75 -4 92 17 17 63 15 78 -4z"/>
<path d="M2445 2055 l0 -75 48 0 c38 0 47 3 46 18 0 10 -3 12 -6 5 -2 -7 -18
-13 -34 -13 -26 0 -29 3 -29 31 0 28 3 31 25 27 16 -3 25 -1 25 7 0 8 -9 10
-25 7 -22 -4 -25 -1 -25 23 0 25 3 27 35 23 22 -2 34 0 32 6 -2 6 -23 12 -48
14 l-44 3 0 -76z"/>
<path d="M2616 2117 c-27 -20 -15 -50 27 -70 26 -12 37 -23 35 -35 -4 -21 -44
-28 -64 -12 -11 10 -14 9 -14 -4 0 -12 10 -16 39 -16 70 0 80 52 16 83 -35 17
-46 41 -22 50 6 2 20 0 30 -5 23 -12 37 -1 17 12 -21 13 -43 12 -64 -3z"/>
<path d="M3672 2020 c-2 -48 -19 -147 -37 -214 -5 -16 -4 -18 4 -6 17 27 42
176 38 226 l-3 49 -2 -55z"/>
<path d="M3772 2027 c8 -34 5 -53 -11 -97 -14 -41 -20 -48 -21 -30 -1 17 -6 9
-15 -25 -17 -60 -17 -64 -5 -45 13 20 13 -1 0 -36 -6 -15 -9 -29 -6 -31 2 -3
21 48 41 112 26 83 34 126 30 147 l-7 30 42 -23 c24 -13 56 -40 72 -59 17 -19
25 -25 19 -14 -14 28 -63 70 -111 94 l-37 19 9 -42z m-35 -179 c-3 -8 -6 -5
-6 6 -1 11 2 17 5 13 3 -3 4 -12 1 -19z"/>
<path d="M2972 1920 c0 -14 2 -19 5 -12 2 6 2 18 0 25 -3 6 -5 1 -5 -13z"/>
<path d="M3115 1882 c61 -65 141 -120 249 -171 77 -37 117 -68 129 -101 3 -8
5 -1 6 15 0 17 -5 39 -10 50 -7 16 -8 14 -3 -10 l6 -30 -29 27 c-15 15 -55 39
-87 53 -81 36 -187 106 -255 168 l-56 51 50 -52z"/>
<path d="M3837 1871 c-7 -87 -35 -138 -131 -242 -47 -51 -97 -115 -110 -141
-25 -49 -25 -49 -40 -26 -8 13 -22 40 -30 60 -19 45 -15 58 54 168 28 45 50
83 48 85 -2 2 -32 -42 -67 -98 l-64 -102 16 -43 c14 -40 14 -43 -1 -37 -45 19
-52 15 -12 -7 35 -19 52 -38 78 -87 19 -34 32 -64 29 -67 -2 -2 -24 5 -48 16
-37 16 -63 19 -164 18 l-120 -2 130 -6 c124 -6 192 -21 179 -41 -3 -5 2 -9 12
-9 12 0 6 -12 -24 -44 -22 -24 -45 -54 -51 -67 -12 -24 -12 -24 6 1 31 42 75
90 83 90 5 0 10 -6 13 -12 2 -7 2 -3 0 10 -6 40 21 24 86 -53 35 -41 66 -75
69 -75 6 0 -19 30 -66 82 -19 20 -32 41 -28 46 7 12 -41 45 -54 37 -19 -11
-10 30 13 63 12 18 62 63 111 100 95 71 196 180 195 210 0 12 -3 10 -10 -7
-18 -46 -99 -130 -195 -201 -52 -39 -104 -85 -114 -102 l-19 -31 -17 36 c-17
35 -17 37 9 89 15 29 65 95 113 147 48 52 95 114 106 139 18 41 37 162 26 162
-3 0 -8 -26 -11 -59z"/>
<path d="M3909 1882 c-9 -26 -19 -56 -23 -67 -4 -11 2 -4 14 15 l21 35 -7 -35
c-20 -111 -132 -290 -180 -290 -30 0 -12 44 40 98 50 54 106 132 106 149 0 5
-14 -14 -31 -42 -18 -27 -56 -76 -85 -107 -59 -62 -73 -108 -32 -108 49 0 159
165 189 282 l11 47 49 -75 c27 -41 49 -86 49 -100 0 -24 -65 -97 -172 -192
-43 -38 -48 -52 -15 -51 19 0 20 1 4 8 -17 6 -14 11 20 41 21 19 49 44 63 55
48 38 110 118 110 141 0 13 -26 63 -57 111 -36 55 -56 96 -55 110 5 36 -2 27
-19 -25z"/>
<path d="M2971 1853 c-15 -52 -12 -67 3 -20 l12 39 49 -59 c167 -197 248 -248
340 -213 25 10 26 12 13 33 -14 21 -103 76 -123 77 -5 0 15 -14 45 -30 68 -37
89 -61 63 -72 -69 -27 -155 13 -250 118 -40 43 -71 80 -69 81 1 2 43 -19 92
-47 49 -27 93 -50 98 -50 6 0 -42 29 -105 65 -62 36 -124 76 -136 90 l-22 25
-10 -37z"/>
<path d="M3526 1824 c-9 -24 -7 -74 3 -74 12 0 51 49 51 64 0 6 -10 -4 -21
-21 -12 -18 -23 -33 -26 -33 -3 0 -3 18 0 40 5 42 3 50 -7 24z"/>
<path d="M3675 1767 c-80 -110 -98 -162 -52 -155 15 2 32 21 54 63 18 33 32
65 32 70 0 6 -16 -20 -35 -57 -32 -63 -64 -89 -64 -52 0 22 16 51 63 112 22
29 38 54 36 56 -2 2 -17 -15 -34 -37z"/>
<path d="M2941 1727 c-1 -46 29 -109 66 -135 35 -24 114 -65 118 -60 2 2 -25
18 -60 37 -74 38 -106 80 -116 151 l-6 45 -2 -38z"/>
<path d="M3069 1658 c69 -74 228 -146 298 -135 27 4 27 4 -3 6 -88 4 -216 64
-299 139 -39 36 -39 36 4 -10z"/>
<path d="M4027 1601 c-4 -16 -21 -47 -39 -68 -28 -33 -29 -35 -4 -13 15 14 36
40 45 58 l17 34 16 -24 c16 -24 34 -77 41 -118 4 -22 4 -21 5 5 1 34 -14 75
-43 123 -24 40 -31 40 -38 3z"/>
<path d="M2950 1543 c0 -58 6 -82 32 -139 17 -38 31 -72 30 -77 -3 -9 108
-217 115 -217 2 0 -20 47 -51 105 -30 58 -54 105 -53 105 1 0 25 -7 52 -16 71
-21 240 -31 260 -14 17 14 20 30 5 30 -6 0 -9 -6 -8 -12 2 -8 -12 -14 -37 -16
-48 -4 -189 8 -181 15 3 3 51 9 108 13 l103 8 -130 -2 c-71 0 -140 3 -153 7
-35 13 -82 125 -82 198 0 33 3 59 6 59 3 0 31 -19 62 -43 70 -52 113 -80 117
-75 2 2 -31 27 -73 56 -42 29 -87 59 -99 68 l-23 16 0 -69z"/>
<path d="M3175 1510 c22 -10 54 -21 70 -25 17 -3 1 6 -35 19 -76 30 -93 32
-35 6z"/>
<path d="M3413 1513 c9 -2 23 -2 30 0 6 3 -1 5 -18 5 -16 0 -22 -2 -12 -5z"/>
<path d="M3995 1463 c-22 -19 -62 -46 -90 -59 -27 -13 -44 -24 -37 -24 23 0
86 37 132 79 25 22 43 40 40 40 -3 0 -23 -16 -45 -36z"/>
<path d="M3288 1473 c7 -3 16 -2 19 1 4 3 -2 6 -13 5 -11 0 -14 -3 -6 -6z"/>
<path d="M3890 1465 c-14 -8 -20 -14 -14 -15 5 0 19 7 30 15 24 18 16 19 -16
0z"/>
<path d="M3009 1457 c16 -20 111 -70 118 -63 4 3 2 6 -3 6 -6 0 -36 16 -68 35
-32 19 -53 29 -47 22z"/>
<path d="M3189 1455 c42 -20 133 -17 138 5 4 12 3 13 -5 1 -10 -14 -101 -12
-147 3 -11 3 -5 -1 14 -9z"/>
<path d="M4071 1406 l-24 -31 28 27 c16 15 27 29 24 31 -2 3 -15 -10 -28 -27z"/>
<path d="M3155 1380 c19 -8 123 -14 114 -6 -2 2 -33 6 -69 9 -38 3 -57 1 -45
-3z"/>
<path d="M3803 1373 c9 -2 25 -2 35 0 9 3 1 5 -18 5 -19 0 -27 -2 -17 -5z"/>
<path d="M4018 1373 c7 -3 16 -2 19 1 4 3 -2 6 -13 5 -11 0 -14 -3 -6 -6z"/>
<path d="M3738 1363 c6 -2 18 -2 25 0 6 3 1 5 -13 5 -14 0 -19 -2 -12 -5z"/>
<path d="M3978 1363 c7 -3 16 -2 19 1 4 3 -2 6 -13 5 -11 0 -14 -3 -6 -6z"/>
<path d="M3915 1350 c-13 -5 -14 -9 -5 -9 8 0 24 4 35 9 13 5 14 9 5 9 -8 0
-24 -4 -35 -9z"/>
<path d="M3971 1316 l-25 -31 27 24 c22 20 27 21 27 8 0 -9 4 -18 9 -21 4 -3
6 6 3 19 -6 36 -14 36 -41 1z"/>
<path d="M3837 1323 c-9 -8 12 -33 27 -33 6 0 3 5 -8 11 -15 9 -16 13 -5 20 8
5 9 9 3 9 -6 0 -14 -3 -17 -7z"/>
<path d="M3468 1269 c-32 -16 -58 -32 -58 -34 0 -5 119 52 129 61 13 12 -22
-1 -71 -27z"/>
<path d="M3700 1286 c0 -3 9 -10 20 -16 11 -6 20 -8 20 -6 0 3 -9 10 -20 16
-11 6 -20 8 -20 6z"/>
<path d="M3893 1283 c9 -2 25 -2 35 0 9 3 1 5 -18 5 -19 0 -27 -2 -17 -5z"/>
<path d="M3988 1240 c-11 -27 -31 -49 -64 -70 -26 -16 -43 -30 -37 -30 36 0
131 102 121 130 -2 5 -10 -9 -20 -30z"/>
<path d="M3637 1200 c3 -30 7 -57 9 -59 7 -8 2 64 -6 89 -6 16 -7 6 -3 -30z"/>
<path d="M3780 1240 c8 -5 22 -9 30 -9 10 0 8 3 -5 9 -27 12 -43 12 -25 0z"/>
<path d="M3920 1240 c-8 -5 -10 -10 -5 -10 6 0 17 5 25 10 8 5 11 10 5 10 -5
0 -17 -5 -25 -10z"/>
<path d="M3340 1213 c-44 -14 -138 -13 -185 2 -20 6 -20 6 0 -6 30 -20 172
-17 215 3 43 20 30 21 -30 1z"/>
<path d="M3848 1223 c12 -2 30 -2 40 0 9 3 -1 5 -23 4 -22 0 -30 -2 -17 -4z"/>
<path d="M3310 1169 c-30 -16 -59 -35 -65 -41 -5 -6 6 -2 26 10 19 12 55 30
80 41 24 11 37 21 29 21 -8 0 -40 -14 -70 -31z"/>
<path d="M3415 1176 c18 -13 18 -15 2 -40 -10 -14 -15 -26 -12 -26 2 0 12 11
21 25 13 20 14 28 4 40 -7 8 -17 15 -23 15 -6 0 -2 -6 8 -14z"/>
<path d="M3467 1113 c-21 -31 -29 -49 -19 -40 17 16 67 97 60 97 -2 0 -21 -26
-41 -57z"/>
<path d="M3797 1149 c7 -7 15 -10 18 -7 3 3 -2 9 -12 12 -14 6 -15 5 -6 -5z"/>
<path d="M3838 1133 c6 -2 18 -2 25 0 6 3 1 5 -13 5 -14 0 -19 -2 -12 -5z"/>
<path d="M3651 1114 c0 -11 3 -14 6 -6 3 7 2 16 -1 19 -3 4 -6 -2 -5 -13z"/>
<path d="M3455 1025 c-34 -45 -65 -77 -80 -81 -39 -10 -86 13 -145 68 l-55 53
50 6 50 7 -53 -2 c-28 0 -52 2 -52 7 0 4 -7 7 -15 7 -8 0 -15 -4 -15 -10 0 -5
4 -10 9 -10 4 0 36 -27 70 -60 69 -67 124 -91 166 -72 13 6 48 44 77 84 49 67
53 70 59 47 7 -22 7 -23 8 -2 2 44 -20 32 -74 -42z"/>
<path d="M3308 1083 c6 -2 18 -2 25 0 6 3 1 5 -13 5 -14 0 -19 -2 -12 -5z"/>
<path d="M3635 1068 c-6 -13 -32 -35 -58 -49 -27 -14 -61 -39 -75 -55 l-27
-29 30 27 c17 14 48 35 70 46 45 22 79 55 73 72 -2 6 -8 0 -13 -12z"/>
<path d="M3390 1045 c-14 -8 -20 -14 -14 -15 5 0 19 7 30 15 24 18 16 19 -16
0z"/>
<path d="M3495 1014 c-9 -15 -12 -23 -6 -20 11 7 35 46 28 46 -3 0 -12 -12
-22 -26z"/>
<path d="M3323 1023 c9 -2 23 -2 30 0 6 3 -1 5 -18 5 -16 0 -22 -2 -12 -5z"/>
<path d="M3446 956 l-28 -23 28 0 c16 0 23 2 16 4 -10 4 -9 9 4 24 23 25 15
23 -20 -5z"/>
</g>
</svg>
